<svg version="1" xmlns="http://www.w3.org/2000/svg" width="346.667" height="346.667" viewBox="0 0 260.000000 260.000000"><path d="M67.7 62.7c-.2.5-.3 1.9-.3 3.3.1 2.5.2 2.5 9.4 2.5 9.1 0 9.2 0 9.3 2.5v118.5l-.1 3.1-9.2-.1h-9.3v6l27.8.3 27.7.2v-6.6l-9 .1c-6.7.1-9-.2-9.1-1.2-.1-1.9 0-23.3.1-31.6l.1-7.2 6-6.5c3.3-3.6 8.7-9.8 12.1-13.8 3.5-3.9 6.5-7.2 6.9-7.2.4 0 4.7 6.8 9.5 15.1 4.9 8.3 9.8 16.6 10.9 18.4 9.5 15.7 14.7 25.5 14.9 28 .1 3.5-2.6 5.1-9.4 5.7-4.2.3-4.5.5-4.5 3.3v3l29.8.3 29.7.2v-6.5l-5.8-.2c-11.5-.4-13.4-1.5-18-10.3-.7-1.4-10.6-18.4-21.9-37.8L144.8 109l6.8-7.8c3.8-4.2 11.9-12.7 17.9-18.9 11.6-11.8 13.2-12.7 23.5-13.5 4.3-.3 4.5-.5 4.8-3.6l.3-3.2H148v3.3c0 3 .2 3.2 3.8 3.3 6.2.1 8.9 1.2 9.6 3.6 1.1 4.1.6 6.5-1.6 9-1.3 1.3-6.3 6.9-11.3 12.4-4.9 5.4-11.2 12.3-14 15.3-6.2 6.7-6 6.5-17 18.7-4.9 5.4-9.7 10.7-10.7 11.7-1.7 1.7-1.8.3-1.8-34.3 0-19.8.3-36.1.8-36.1.4-.1 4.5-.2 9.2-.3l8.5-.1.3-3.3.3-3.2h-28c-15.4 0-28.2.3-28.4.7z"/></svg>