<?xml version="1.0" standalone="no"?>
<!DOCTYPE svg PUBLIC "-//W3C//DTD SVG 20010904//EN"
 "http://www.w3.org/TR/2001/REC-SVG-20010904/DTD/svg10.dtd">
<svg version="1.0" xmlns="http://www.w3.org/2000/svg"
 width="260.000000pt" height="260.000000pt" viewBox="0 0 260.000000 260.000000"
 preserveAspectRatio="xMidYMid meet">
<metadata>
Created by potrace 1.11, written by Peter Selinger 2001-2013
</metadata>
<g transform="translate(0.000000,260.000000) scale(0.100000,-0.100000)"
fill="#000000" stroke="none">
<path d="M677 1973 c-2 -5 -3 -19 -3 -33 1 -25 2 -25 94 -25 91 0 92 0 93 -25
0 -33 0 -1146 0 -1185 l-1 -31 -92 1 -93 0 0 -30 0 -30 278 -3 277 -2 0 33 0
33 -90 -1 c-67 -1 -90 2 -91 12 -1 19 0 233 1 316 l1 72 60 65 c33 36 87 98
121 138 35 39 65 72 69 72 4 0 47 -68 95 -151 49 -83 98 -166 109 -184 95
-157 147 -255 149 -280 1 -35 -26 -51 -94 -57 -42 -3 -45 -5 -45 -33 l0 -30
298 -3 297 -2 0 32 0 33 -58 2 c-115 4 -134 15 -180 103 -7 14 -106 184 -219
378 l-205 352 68 78 c38 42 119 127 179 189 116 118 132 127 235 135 43 3 45
5 48 36 l3 32 -250 0 -251 0 0 -33 c0 -30 2 -32 38 -33 62 -1 89 -12 96 -36
11 -41 6 -65 -16 -90 -13 -13 -63 -69 -113 -124 -49 -54 -112 -123 -140 -153
-62 -67 -60 -65 -170 -187 -49 -54 -97 -107 -107 -117 -17 -17 -18 -3 -18 343
0 198 3 361 8 361 4 1 45 2 92 3 l85 1 3 33 3 32 -280 0 c-154 0 -282 -3 -284
-7z"/>
</g>
</svg>
